<svg xmlns="http://www.w3.org/2000/svg" xmlns:xlink="http://www.w3.org/1999/xlink" xml:space="preserve" width="481" height="268" style="shape-rendering: geometricPrecision; text-rendering: geometricPrecision; fill-rule: evenodd; clip-rule: evenodd;" viewBox="0 0 481 268"><rect id="backgroundrect" width="100%" height="100%" x="0" y="0" fill="none" stroke="none" class=""/>
 <defs>
  <style type="text/css">
   <![CDATA[
    .fil1 {fill:#393185}
    .fil2 {fill:#FEFEFE}
    .fil0 {fill:#FFED00}
   ]]>
  </style>
 </defs>
 
<g class="currentLayer"><title>Layer 1</title><g id="Layer_x0020_1" class="">
  <metadata id="CorelCorpID_0Corel-Layer" transform="translate(-653.0009765625,-643.00048828125) translate(-3999.999755859375,-499.9999694824219) translate(-8279.9990234375,-4899.99951171875) translate(0,0) scale(0.09344498813152313) translate(0,0) "/>
  <path class="fil0" d="M240.7143122405214,0.0000028517147256934562 c132.97221811115742,0 157.73513996601105,92.04331330955029 240.7142894268036,134.00011298060417 c-82.97914946079254,45.507709220051765 -107.74207131564617,134.00011298060417 -240.7142894268036,134.00011298060417 c-132.97221811115742,0 -148.2037511765957,-99.14513240754604 -240.7142894268036,-134.00011298060417 c93.63187810778618,-49.058618769049644 107.74207131564617,-134.00011298060417 240.7142894268036,-134.00011298060417 z" id="svg_1"/>
  <ellipse class="fil1" cx="240.7143122405214" cy="133.81322585605585" rx="92.97776319086552" ry="108.95685616135597" id="svg_2"/>
  <path class="fil2" d="M323.31968174878784,88.21207164787256 c0.6541149169206619,0 1.2147848457098007,0 1.8688997626304626,0 c3.8312445133924484,9.624833777546883 6.447704181075096,20.090672448277473 7.662489026784897,31.02373605966568 c-3.1771295964717865,-0.09344498813152313 -6.354259192943573,-0.18688997626304626 -9.53138878941536,-0.18688997626304626 c-64.00981687009335,0 -122.69326941668987,21.77268223464489 -168.0140886604786,57.93589264154434 c-2.9902396202087402,-8.03626897931099 -5.139474347233772,-16.633207887411118 -6.354259192943573,-25.60392674803734 c46.16182413697243,-39.246895015239716 107.36829136312008,-63.16881197690964 174.4617928415537,-63.16881197690964 z" id="svg_3"/>
 </g></g></svg>
