<svg xmlns="http://www.w3.org/2000/svg" xmlns:xlink="http://www.w3.org/1999/xlink" xml:space="preserve" width="30084" height="7375" style="shape-rendering: geometricPrecision; text-rendering: geometricPrecision; fill-rule: evenodd; clip-rule: evenodd;"><rect id="backgroundrect" width="100%" height="100%" x="0" y="0" fill="none" stroke="none"/>
 <defs>
  <style type="text/css">
   <![CDATA[
    .fil2 {fill:#393185}
    .fil0 {fill:#D9DADA}
    .fil3 {fill:#FEFEFE}
    .fil1 {fill:#FFED00}
    .fil6 {fill:#0F7829}
    .fil5 {fill:#0F7829;fill-rule:nonzero}
    .fil4 {fill:#14A639;fill-rule:nonzero}
   ]]>
  </style>
 </defs>
 
<g class="currentLayer"><title>Layer 1</title><g id="Layer_x0020_1" class="">
  <metadata id="CorelCorpID_0Corel-Layer" transform="translate(7112,-8511) "/>
  <g id="_191450432">
   <g id="svg_1">
    <polygon class="fil0" points="30083,7375 29852,7033 227,7033 0,7375 " id="svg_2"/>
    <rect class="fil0" x="21678" y="0" width="1235" height="7143" id="svg_3"/>
    <rect class="fil0" x="19926" y="0" width="1235" height="7143" id="svg_4"/>
    <path class="fil0" d="M19383,7143 c-141,-717 -1059,-1271 -2169,-1271 c-1110,0 -2028,554 -2169,1271 l4338,0 z" id="svg_5"/>
   </g>
   <path class="fil0" d="M22948,7375 l971,-1435 l293,0 c560,535 1057,1120 2249,1120 c1240,0 1789,-565 2375,-1120 l277,0 l971,1435 l-3762,0 l-2321,0 l-1051,0 z" id="svg_6"/>
   <g id="svg_7">
    <path class="fil1" d="M26461,3634 c1589,0 1885,1100 2877,1601 c-992,544 -1288,1601 -2877,1601 c-1589,0 -1772,-1185 -2877,-1601 c1120,-587 1288,-1601 2877,-1601 z" id="svg_8"/>
    <ellipse class="fil2" cx="26461" cy="5233" rx="1112" ry="1302" id="svg_9"/>
    <path class="fil3" d="M27449,4688 c7,0 15,0 22,0 c45,115 77,240 92,370 c-38,-1 -76,-2 -114,-2 c-765,0 -1466,261 -2008,693 c-36,-96 -62,-199 -76,-306 c552,-470 1283,-755 2085,-755 z" id="svg_10"/>
   </g>
   <path class="fil4" d="M9549,5399 c0,407 -110,725 -329,953 c-219,228 -525,342 -920,342 c-378,0 -678,-117 -902,-350 c-224,-233 -335,-548 -335,-945 c0,-406 110,-721 329,-946 c219,-225 527,-338 922,-338 c245,0 461,52 648,156 c188,104 332,253 434,447 c102,194 152,421 152,680 zm-1613,0 c0,214 29,377 86,489 c57,112 153,168 288,168 c134,0 227,-56 283,-168 c55,-113 82,-275 82,-489 c0,-212 -28,-373 -83,-482 c-56,-108 -151,-162 -286,-162 c-132,0 -227,53 -284,161 c-57,107 -86,269 -86,482 z" id="svg_11"/>
   <g id="svg_12">
    <path class="fil5" d="M22804,6649 l-165,-329 l-18,0 c-116,143 -233,242 -353,294 c-120,53 -275,80 -466,80 c-235,0 -419,-71 -554,-212 c-134,-140 -202,-338 -202,-593 c0,-265 92,-462 277,-592 c185,-130 452,-203 802,-219 l416,-13 l0,-35 c0,-206 -101,-308 -303,-308 c-182,0 -413,62 -692,185 l-248,-567 c290,-149 656,-224 1099,-224 c319,0 566,80 741,237 c176,158 263,380 263,664 l0,1633 l-596,0 zm-638,-563 c104,0 193,-33 267,-99 c74,-66 111,-152 111,-257 l0,-193 l-198,8 c-283,11 -424,115 -424,312 c0,152 81,229 244,229 z" id="svg_13"/>
    <path class="fil5" d="M19699,3540 c0,-128 36,-224 108,-287 c71,-63 188,-95 347,-95 c159,0 276,32 349,97 c74,65 110,160 110,285 c0,252 -153,378 -459,378 c-304,0 -455,-126 -455,-378 z" id="svg_14"/>
    <polygon class="fil5" points="20580,6649 19721,6649 19721,4160 20580,4160 " id="svg_15"/>
    <path class="fil5" d="M18424,6694 c-407,0 -716,-110 -926,-330 c-210,-220 -315,-536 -315,-947 c0,-413 113,-733 341,-960 c227,-227 550,-341 969,-341 c289,0 560,63 815,189 l-253,635 c-104,-46 -200,-82 -288,-109 c-88,-27 -179,-41 -275,-41 c-139,0 -247,55 -323,163 c-76,109 -114,262 -114,460 c0,398 147,597 442,597 c252,0 494,-73 725,-220 l0,684 c-221,146 -488,220 -798,220 z" id="svg_16"/>
    <path class="fil5" d="M16111,6649 l-165,-329 l-18,0 c-116,143 -233,242 -353,294 c-120,53 -275,80 -466,80 c-235,0 -419,-71 -554,-212 c-134,-140 -202,-338 -202,-593 c0,-265 92,-462 277,-592 c185,-130 452,-203 802,-219 l416,-13 l0,-35 c0,-206 -101,-308 -303,-308 c-182,0 -413,62 -692,185 l-248,-567 c290,-149 656,-224 1099,-224 c319,0 566,80 741,237 c176,158 263,380 263,664 l0,1633 l-596,0 zm-638,-563 c104,0 193,-33 267,-99 c74,-66 111,-152 111,-257 l0,-193 l-198,8 c-283,11 -424,115 -424,312 c0,152 81,229 244,229 z" id="svg_17"/>
    <path class="fil5" d="M13968,4116 c75,0 146,6 214,17 l48,9 l-77,811 c-71,-17 -168,-26 -293,-26 c-188,0 -324,43 -409,129 c-85,86 -128,209 -128,370 l0,1224 l-859,0 l0,-2490 l639,0 l134,398 l41,0 c72,-132 172,-239 300,-320 c128,-82 258,-122 388,-122 z" id="svg_18"/>
    <path class="fil5" d="M11173,6694 c-407,0 -716,-110 -926,-330 c-210,-220 -315,-536 -315,-947 c0,-413 113,-733 341,-960 c227,-227 550,-341 969,-341 c289,0 560,63 815,189 l-253,635 c-104,-46 -200,-82 -288,-109 c-88,-27 -179,-41 -275,-41 c-139,0 -247,55 -323,163 c-76,109 -114,262 -114,460 c0,398 147,597 442,597 c252,0 494,-73 725,-220 l0,684 c-221,146 -488,220 -798,220 z" id="svg_19"/>
    <path class="fil6" d="M19699,3540 c0,-128 36,-224 108,-287 c71,-63 188,-95 347,-95 c159,0 276,32 349,97 c74,65 110,160 110,285 c0,252 -153,378 -459,378 c-304,0 -455,-126 -455,-378 z" id="svg_20"/>
   </g>
   <path class="fil4" d="M6833,4803 l-530,0 l0,1846 l-860,0 l0,-1846 l-329,0 l0,-422 l347,-212 l0,-41 c0,-329 67,-564 201,-708 c134,-143 349,-215 645,-215 c114,0 222,9 324,26 c102,18 220,49 355,92 l-185,557 c-106,-29 -209,-44 -310,-44 c-66,0 -114,20 -144,61 c-30,40 -45,106 -45,197 l0,66 l530,0 l0,644 z" id="svg_21"/>
   <path class="fil4" d="M3868,6649 l0,-1358 c0,-165 -24,-290 -71,-374 c-47,-84 -124,-127 -230,-127 c-145,0 -250,59 -314,174 c-65,116 -97,314 -97,596 l0,1090 l-859,0 l0,-2490 l648,0 l107,308 l51,0 c73,-117 175,-206 304,-264 c130,-59 279,-88 448,-88 c275,0 489,80 643,239 c153,160 230,385 230,675 l0,1619 l-860,0 z" id="svg_22"/>
   <polygon class="fil4" points="781,6649 781,3437 1653,3437 1653,6649 " id="svg_23"/>
  </g>
 </g></g></svg>