<?xml version="1.0" encoding="UTF-8"?>
<!DOCTYPE svg PUBLIC "-//W3C//DTD SVG 1.1//EN" "http://www.w3.org/Graphics/SVG/1.1/DTD/svg11.dtd">
<!-- Creator: CorelDRAW X5 -->
<svg xmlns="http://www.w3.org/2000/svg" xml:space="preserve" width="210mm" height="297mm" style="shape-rendering:geometricPrecision; text-rendering:geometricPrecision; image-rendering:optimizeQuality; fill-rule:evenodd; clip-rule:evenodd"
viewBox="0 0 21000 29700"
 xmlns:xlink="http://www.w3.org/1999/xlink">
 <defs>
  <style type="text/css">
   <![CDATA[
    .fil2 {fill:#393185}
    .fil0 {fill:#D9DADA}
    .fil3 {fill:#FEFEFE}
    .fil1 {fill:#FFED00}
    .fil6 {fill:#0F7829}
    .fil5 {fill:#0F7829;fill-rule:nonzero}
    .fil4 {fill:#14A639;fill-rule:nonzero}
   ]]>
  </style>
 </defs>
 <g id="Layer_x0020_1">
  <metadata id="CorelCorpID_0Corel-Layer"/>
  <g id="_191450432">
   <g>
    <polygon class="fil0" points="22971,15886 22740,15544 -6885,15544 -7112,15886 "/>
    <rect class="fil0" x="14566" y="8511" width="1235" height="7143"/>
    <rect class="fil0" x="12814" y="8511" width="1235" height="7143"/>
    <path class="fil0" d="M12271 15654c-141,-717 -1059,-1271 -2169,-1271 -1110,0 -2028,554 -2169,1271l4338 0z"/>
   </g>
   <path class="fil0" d="M15836 15886l971 -1435 293 0c560,535 1057,1120 2249,1120 1240,0 1789,-565 2375,-1120l277 0 971 1435 -3762 0 -2321 0 -1051 0z"/>
   <g>
    <path class="fil1" d="M19349 12145c1589,0 1885,1100 2877,1601 -992,544 -1288,1601 -2877,1601 -1589,0 -1772,-1185 -2877,-1601 1120,-587 1288,-1601 2877,-1601z"/>
    <ellipse class="fil2" cx="19349" cy="13744" rx="1112" ry="1302"/>
    <path class="fil3" d="M20337 13199c7,0 15,0 22,0 45,115 77,240 92,370 -38,-1 -76,-2 -114,-2 -765,0 -1466,261 -2008,693 -36,-96 -62,-199 -76,-306 552,-470 1283,-755 2085,-755z"/>
   </g>
   <path class="fil4" d="M2437 13910c0,407 -110,725 -329,953 -219,228 -525,342 -920,342 -378,0 -678,-117 -902,-350 -224,-233 -335,-548 -335,-945 0,-406 110,-721 329,-946 219,-225 527,-338 922,-338 245,0 461,52 648,156 188,104 332,253 434,447 102,194 152,421 152,680zm-1613 0c0,214 29,377 86,489 57,112 153,168 288,168 134,0 227,-56 283,-168 55,-113 82,-275 82,-489 0,-212 -28,-373 -83,-482 -56,-108 -151,-162 -286,-162 -132,0 -227,53 -284,161 -57,107 -86,269 -86,482z"/>
   <g>
    <path class="fil5" d="M15692 15160l-165 -329 -18 0c-116,143 -233,242 -353,294 -120,53 -275,80 -466,80 -235,0 -419,-71 -554,-212 -134,-140 -202,-338 -202,-593 0,-265 92,-462 277,-592 185,-130 452,-203 802,-219l416 -13 0 -35c0,-206 -101,-308 -303,-308 -182,0 -413,62 -692,185l-248 -567c290,-149 656,-224 1099,-224 319,0 566,80 741,237 176,158 263,380 263,664l0 1633 -596 0zm-638 -563c104,0 193,-33 267,-99 74,-66 111,-152 111,-257l0 -193 -198 8c-283,11 -424,115 -424,312 0,152 81,229 244,229z"/>
    <path class="fil5" d="M12587 12051c0,-128 36,-224 108,-287 71,-63 188,-95 347,-95 159,0 276,32 349,97 74,65 110,160 110,285 0,252 -153,378 -459,378 -304,0 -455,-126 -455,-378z"/>
    <polygon class="fil5" points="13468,15160 12609,15160 12609,12671 13468,12671 "/>
    <path class="fil5" d="M11312 15205c-407,0 -716,-110 -926,-330 -210,-220 -315,-536 -315,-947 0,-413 113,-733 341,-960 227,-227 550,-341 969,-341 289,0 560,63 815,189l-253 635c-104,-46 -200,-82 -288,-109 -88,-27 -179,-41 -275,-41 -139,0 -247,55 -323,163 -76,109 -114,262 -114,460 0,398 147,597 442,597 252,0 494,-73 725,-220l0 684c-221,146 -488,220 -798,220z"/>
    <path class="fil5" d="M8999 15160l-165 -329 -18 0c-116,143 -233,242 -353,294 -120,53 -275,80 -466,80 -235,0 -419,-71 -554,-212 -134,-140 -202,-338 -202,-593 0,-265 92,-462 277,-592 185,-130 452,-203 802,-219l416 -13 0 -35c0,-206 -101,-308 -303,-308 -182,0 -413,62 -692,185l-248 -567c290,-149 656,-224 1099,-224 319,0 566,80 741,237 176,158 263,380 263,664l0 1633 -596 0zm-638 -563c104,0 193,-33 267,-99 74,-66 111,-152 111,-257l0 -193 -198 8c-283,11 -424,115 -424,312 0,152 81,229 244,229z"/>
    <path class="fil5" d="M6856 12627c75,0 146,6 214,17l48 9 -77 811c-71,-17 -168,-26 -293,-26 -188,0 -324,43 -409,129 -85,86 -128,209 -128,370l0 1224 -859 0 0 -2490 639 0 134 398 41 0c72,-132 172,-239 300,-320 128,-82 258,-122 388,-122z"/>
    <path class="fil5" d="M4061 15205c-407,0 -716,-110 -926,-330 -210,-220 -315,-536 -315,-947 0,-413 113,-733 341,-960 227,-227 550,-341 969,-341 289,0 560,63 815,189l-253 635c-104,-46 -200,-82 -288,-109 -88,-27 -179,-41 -275,-41 -139,0 -247,55 -323,163 -76,109 -114,262 -114,460 0,398 147,597 442,597 252,0 494,-73 725,-220l0 684c-221,146 -488,220 -798,220z"/>
    <path class="fil6" d="M12587 12051c0,-128 36,-224 108,-287 71,-63 188,-95 347,-95 159,0 276,32 349,97 74,65 110,160 110,285 0,252 -153,378 -459,378 -304,0 -455,-126 -455,-378z"/>
   </g>
   <path class="fil4" d="M-279 13314l-530 0 0 1846 -860 0 0 -1846 -329 0 0 -422 347 -212 0 -41c0,-329 67,-564 201,-708 134,-143 349,-215 645,-215 114,0 222,9 324,26 102,18 220,49 355,92l-185 557c-106,-29 -209,-44 -310,-44 -66,0 -114,20 -144,61 -30,40 -45,106 -45,197l0 66 530 0 0 644z"/>
   <path class="fil4" d="M-3244 15160l0 -1358c0,-165 -24,-290 -71,-374 -47,-84 -124,-127 -230,-127 -145,0 -250,59 -314,174 -65,116 -97,314 -97,596l0 1090 -859 0 0 -2490 648 0 107 308 51 0c73,-117 175,-206 304,-264 130,-59 279,-88 448,-88 275,0 489,80 643,239 153,160 230,385 230,675l0 1619 -860 0z"/>
   <polygon class="fil4" points="-6331,15160 -6331,11948 -5459,11948 -5459,15160 "/>
  </g>
 </g>
</svg>
